# xmcd
#
# Track frame offsets:
#	150
#	25773
#	44359
#	61264
#	79050
#	101797
#	118795
#	135833
#	160114
#	178199
#	198979
#	212238
#	225310
#	240471
#	260831
#	277139
#	296473
#	305396
#	325131
#	341005
#
# Disc length: 4783 seconds
#
# Revision: 1
# Processed by: cddbd v1.5.2PL0 Copyright (c) Steve Scherf et al.
# Submitted via: audiograbber 1.83.01
#
DISCID=2012ad14
DTITLE=Compilation - Bake Sale
DYEAR=1900
DGENRE=
TTITLE0=Drive
TTITLE1=Turpentine
TTITLE2=Why Get A Chevrolet - Michael Murphy and The Mob
TTITLE3=Drinking Blues
TTITLE4=Rolling Pin - Cadillac Pete And The Heat
TTITLE5=Boogie Woogie
TTITLE6=King Swing
TTITLE7=I Came Here To Play
TTITLE8=My Troubled Mind
TTITLE9=Blues Is Truth
TTITLE10=Got My Room
TTITLE11=My Baby Blues
TTITLE12=Leavin' Suzanna
TTITLE13=Love Tsunami
TTITLE14=Crossdresser's Blues
TTITLE15=Know What I Like
TTITLE16=Sugar Momma
TTITLE17=Walkin Shoes
TTITLE18=Crucify
TTITLE19=Hypnotize
EXTD=
EXTT0=
EXTT1=
EXTT2=
EXTT3=
EXTT4=
EXTT5=
EXTT6=
EXTT7=
EXTT8=
EXTT9=
EXTT10=
EXTT11=
EXTT12=
EXTT13=
EXTT14=
EXTT15=
EXTT16=
EXTT17=
EXTT18=
EXTT19=
PLAYORDER=
